DBRep_DrawableShape

CASCADE Topology V3, (c) Open Cascade
Locations 0
Curve2ds 24
1 5 -5 0 1 
1 -2.5 5 0 -1 
1 5 5 -1 0 
1 2.5 -5 0 1 
1 -5 5 0 -1 
8 0 10
1 -2.5 -5 -0 1 
1 -5 -5 1 0 
8 0 10
1 2.5 5 -0 -1 
1 -2.5 -5 1 0 
1 2.5 5 -1 0 
1 2.5 5 -1 0 
8 0 5
1 -2.5 5 1 -0 
1 -5 -5 1 0 
1 -2.5 5 0 -1 
1 5 -5 0 1 
8 0 10
1 2.5 5 -0 -1 
1 5 5 -1 0 
8 0 10
1 -2.5 -5 -0 1 
1 -5 5 0 -1 
1 2.5 -5 0 1 
1 -2.5 -5 1 0 
8 0 5
1 2.5 -5 -1 -0 
1 2.5 5 -1 0 
1 -2.5 -5 1 0 
Curves 12
1 0 0 5 0 1 0 
1 0 10 5 1 0 0 
1 10 10 5 0 -1 0 
1 10 0 5 -1 0 0 
1 0 0 0 0 0 1 
1 10 0 5 0 0 -1 
1 10 0 0 -1 0 0 
1 0 0 0 0 1 0 
1 0 10 0 1 0 0 
1 10 10 0 0 -1 0 
1 0 10 0 0 0 1 
1 10 10 5 0 0 -1 
Polygon3D 0
PolygonOnTriangulations 0
Surfaces 6
1 5 5 5 -0 -0 -1 -1 0 0 0 1 -0 
1 0 5 2.5 -1 -0 -0 0 0 -1 0 -1 0 
1 5 10 2.5 0 1 0 0 -0 1 1 0 -0 
1 10 5 2.5 -1 -0 -0 0 0 -1 0 -1 0 
1 5 0 2.5 0 1 0 0 -0 1 1 0 -0 
1 5 5 0 -0 -0 -1 -1 0 0 0 1 -0 
Triangulations 0

TShapes 35
Ve
1e-07
0 0 5
0 0

0101101
*
Ve
1e-07
0 10 5
0 0

0101101
*
Ed
 1e-07 1 1 0
1  1 0 0 10
2  1 1 0 0 10
2  2 2 0 0 10
4 C0 1 0 2 0
0

0101000
+35 0 -34 0 *
Ve
1e-07
10 10 5
0 0

0101101
*
Ed
 1e-07 1 1 0
1  2 0 0 10
2  3 1 0 0 10
2  4 3 0 0 10
4 C0 1 0 3 0
0

0101000
+34 0 -32 0 *
Ve
1e-07
10 0 5
0 0

0101101
*
Ed
 1e-07 1 1 0
1  3 0 0 10
2  5 1 0 0 10
2  6 4 0 0 10
4 C0 1 0 4 0
0

0101000
+32 0 -30 0 *
Ed
 1e-07 1 1 0
1  4 0 0 10
2  7 1 0 0 10
2  8 5 0 0 10
4 C0 1 0 5 0
0

0101000
+30 0 -35 0 *
Wi

0101100
+33 0 +31 0 +29 0 +28 0 *
Fa
0  1e-07 1 0

0111000
+27 0 *
Ve
1e-07
0 0 0
0 0

0101101
*
Ed
 1e-07 1 1 0
1  5 0 0 5
2  9 5 0 0 5
2  10 2 0 0 5
4 C0 5 0 2 0
0

0101000
+25 0 -35 0 *
Ve
1e-07
10 0 0
0 0

0101101
*
Ed
 1e-07 1 1 0
1  6 0 0 5
2  11 5 0 0 5
2  12 4 0 0 5
4 C0 5 0 4 0
0

0101000
+30 0 -23 0 *
Ed
 1e-07 1 1 0
1  7 0 0 10
2  13 6 0 0 10
2  14 5 0 0 10
4 C0 5 0 6 0
0

0101000
+23 0 -25 0 *
Wi

0101100
+24 0 -28 0 +22 0 +21 0 *
Fa
0  1e-07 5 0

0111000
+20 0 *
Ve
1e-07
0 10 0
0 0

0101101
*
Ed
 1e-07 1 1 0
1  8 0 0 10
2  15 6 0 0 10
2  16 2 0 0 10
4 C0 6 0 2 0
0

0101000
+25 0 -18 0 *
Ve
1e-07
10 10 0
0 0

0101101
*
Ed
 1e-07 1 1 0
1  9 0 0 10
2  17 6 0 0 10
2  18 3 0 0 10
4 C0 6 0 3 0
0

0101000
+18 0 -16 0 *
Ed
 1e-07 1 1 0
1  10 0 0 10
2  19 6 0 0 10
2  20 4 0 0 10
4 C0 6 0 4 0
0

0101000
+16 0 -23 0 *
Wi

0101100
+17 0 +15 0 +14 0 +21 0 *
Fa
0  1e-07 6 0

0111000
+13 0 *
Ed
 1e-07 1 1 0
1  11 0 0 5
2  21 3 0 0 5
2  22 2 0 0 5
4 C0 3 0 2 0
0

0101000
+18 0 -34 0 *
Ed
 1e-07 1 1 0
1  12 0 0 5
2  23 3 0 0 5
2  24 4 0 0 5
4 C0 3 0 4 0
0

0101000
+32 0 -16 0 *
Wi

0101100
-15 0 +11 0 +31 0 +10 0 *
Fa
0  1e-07 3 0

0111000
+9 0 *
Wi

0101100
-17 0 +24 0 +33 0 -11 0 *
Fa
0  1e-07 2 0

0111000
+7 0 *
Wi

0101100
-22 0 -29 0 +10 0 +14 0 *
Fa
0  1e-07 4 0

0111000
+5 0 *
Sh

0101100
+26 0 +19 0 -12 0 -8 0 -6 0 +4 0 *
So

0100000
-3 0 *
Co

1100000
+2 0 *

+1 0 